<?xml version="1.0" standalone="no"?><!DOCTYPE svg PUBLIC "-//W3C//DTD SVG 1.1//EN" "http://www.w3.org/Graphics/SVG/1.1/DTD/svg11.dtd"><svg t="1615284090949" class="icon" viewBox="0 0 1024 1024" version="1.1" xmlns="http://www.w3.org/2000/svg" p-id="1951" xmlns:xlink="http://www.w3.org/1999/xlink" width="200" height="200"><defs><style type="text/css"></style></defs><path d="M530.485895 1.347368a485.052632 485.052632 0 1 1 0 970.105264 485.052632 485.052632 0 0 1 0-970.105264z m11.587368 242.526316h-23.174737a40.421053 40.421053 0 0 0-40.421052 40.421053V434.391579l-150.096842 0.053895a40.421053 40.421053 0 0 0-40.421053 40.421052v23.120842c0 22.312421 18.108632 40.421053 40.421053 40.421053h150.096842v150.096842c0 22.366316 18.162526 40.421053 40.421052 40.421053h23.174737a40.421053 40.421053 0 0 0 40.421053-40.421053V538.408421h150.096842a40.421053 40.421053 0 0 0 40.421053-40.421053v-23.066947a40.421053 40.421053 0 0 0-40.421053-40.421053h-150.150737V284.240842a40.421053 40.421053 0 0 0-40.421053-40.421053z" p-id="1952"></path></svg>